<svg width="670" height="180" viewBox="-8 -5 670 180" fill="none" xmlns="http://www.w3.org/2000/svg" role="img" aria-labelledby="title">
  <title id="title">RSN</title>
  <defs>
    <clipPath id="stripe-clip">
      <rect x="0" y="0" width="328" height="170" rx="0"/>
    </clipPath>
    <linearGradient id="green-a" x1="18" y1="78" x2="322" y2="78" gradientUnits="userSpaceOnUse">
      <stop stop-color="#B5FF21"/>
      <stop offset="0.52" stop-color="#63C43C"/>
      <stop offset="1" stop-color="#00D06E"/>
    </linearGradient>
    <filter id="text-shadow" x="330" y="16" width="330" height="136" color-interpolation-filters="sRGB" filterUnits="userSpaceOnUse">
      <feDropShadow dx="0" dy="2" stdDeviation="3" flood-color="#000000" flood-opacity="0.45"/>
    </filter>
  </defs>
  <g clip-path="url(#stripe-clip)">
    <circle cx="80" cy="86" r="69" fill="#B5FF21"/>
    <circle cx="164" cy="86" r="69" fill="#64C83E" fill-opacity="0.88"/>
    <circle cx="248" cy="86" r="69" fill="#00D06E"/>
    <rect x="21" y="38" width="286" height="11" fill="#050A07"/>
    <rect x="12" y="65" width="312" height="11" fill="#050A07"/>
    <rect x="8" y="92" width="320" height="11" fill="#050A07"/>
    <rect x="16" y="119" width="300" height="11" fill="#050A07"/>
  </g>
  <g filter="url(#text-shadow)">
    <path d="M371.2 132H340.5V38h57.1c12.2 0 21.6 2.9 28.2 8.8 6.7 5.8 10 13.8 10 24 0 7.2-1.8 13.3-5.5 18.2-3.6 4.9-8.7 8.5-15.2 10.8L438.9 132h-35.4l-19.8-28.9h-12.5V132ZM371.2 80.2h21.4c3.9 0 6.9-.8 8.8-2.4 2-1.7 3-4 3-7.1 0-3.2-1-5.6-3-7.2-1.9-1.7-4.9-2.5-8.8-2.5h-21.4v19.2Z" fill="white"/>
    <path d="M489.8 134.2c-15.2 0-27.1-3.1-35.7-9.3-8.6-6.3-13.2-15.3-13.8-27h31.9c.4 4.1 2.1 7.3 5.1 9.5 3.1 2.1 7.5 3.2 13.3 3.2 5 0 8.8-.7 11.3-2.2 2.5-1.5 3.8-3.6 3.8-6.3 0-3-1.5-5.2-4.6-6.7-3-1.5-8.5-3-16.5-4.5-14.9-2.8-25.6-6.1-32.1-10.1-6.5-4.1-9.8-10.3-9.8-18.8 0-8.4 3.9-14.9 11.7-19.5 7.9-4.6 19.1-6.9 33.7-6.9 14.2 0 25.5 2.8 33.8 8.5 8.3 5.6 12.8 13.6 13.6 24h-31.1c-.4-3.3-1.9-5.8-4.6-7.4-2.7-1.7-6.8-2.5-12.3-2.5-4.4 0-7.8.5-10.1 1.6-2.3 1.1-3.4 2.8-3.4 5.1 0 2.5 1.5 4.4 4.5 5.7 3 1.2 8.5 2.5 16.5 3.9 15.1 2.8 25.9 6.4 32.5 10.7 6.7 4.2 10 10.9 10 20 0 9.3-4.3 16.5-12.8 21.6-8.5 5.1-20.8 7.7-36.9 7.7Z" fill="white"/>
    <path d="M576.9 132H546.7V38h36.5l34.6 52.2V38H648v94h-35.7l-35.4-53.4V132Z" fill="white"/>
  </g>
</svg>
